<svg id="Layer_1" data-name="Layer 1" xmlns="http://www.w3.org/2000/svg" viewBox="0 0 500 500"><defs><style>.cls-1{fill:#fefefe;}.cls-2{fill:#fdc918;}.cls-3{fill:#13688f;}.cls-4{fill:#e51c29;}.cls-5{fill:#136890;}.cls-6{fill:#146890;}.cls-7{fill:#010101;}.cls-8{fill:#88b3c7;}.cls-9{fill:#010100;}.cls-10{fill:#e51d29;}.cls-11{fill:#e51e29;}.cls-12{fill:#e62028;}.cls-13{fill:#e62528;}.cls-14{fill:#f27820;}.cls-15{fill:#fdc618;}.cls-16{fill:#fdc718;}.cls-17{fill:#f9aa1b;}.cls-18{fill:#186b92;}.cls-19{fill:#1c6d94;}.cls-20{fill:#1b6d93;}.cls-21{fill:#7aa9c0;}</style></defs><path class="cls-1" d="M250.5,381.9q-96.7,0-193.41.1c-3.42,0-4.09-.67-4.09-4.09Q53.18,250,53,122.09c0-3.42.67-4.09,4.09-4.09q193.41.16,386.82,0c3.42,0,4.09.67,4.09,4.09q-.18,127.91,0,255.82c0,3.42-.67,4.1-4.09,4.09Q347.21,381.81,250.5,381.9Z"/><path class="cls-2" d="M337.94,367.42c-2.38,1.34-4.21.85-5.94.85q-129.43,0-258.86.14c-5,0-6.36-1.09-6.33-6.24.23-45.3.17-90.6.06-135.89A10.56,10.56,0,0,1,70.22,218q23.66-23.34,47-47a10.59,10.59,0,0,1,8.33-3.38q75.45.15,150.91.11c1.73,0,4.17-1,5,.75s-1.23,3.23-2.12,4.75c-4.29,7.32-8.72,14.56-13,21.87-3.46,5.86-2,8.82,4.66,10.06a324.11,324.11,0,0,1,50,13.73c4.1,1.47,4.72,3.27,4,7.19q-9.37,51.51-18.38,103.08c-1,5.52-2.87,11-1.8,16.73,1.4,7.53,5.57,12.71,12.86,15.14C324.19,363.2,330.8,365.17,337.94,367.42Z"/><path d="M382.05,154.73c13.18,0,26.27-.08,39.35.06,3.08,0,5.59,1.83,7.84,4,14.13,13.43,14.06,13.4,10.42,34.51q-14,81.06-27.75,162.15c-1.35,8-5.21,12.81-12.63,16.27-8.73,4.07-16.71,4.45-25.81,1.32-17-5.82-34.23-10.68-51.37-15.92-10.14-3.1-13.8-8.75-12-19,4-22.4,8.08-44.79,12.14-67.19q3.86-21.35,7.75-42.67c.3-1.62.72-3.22,1.12-5,3,.89,2.49,3.33,2.65,5.26.88,10.63-2.48,20.73-4.25,31-4.55,26.52-9.59,53-14.38,79.45-1.38,7.68.89,10.94,8.39,13.21,17.79,5.37,35.54,10.88,53.31,16.33,7.52,2.3,9.62,1,11-6.54q16.74-88.39,33.55-176.77c1.05-5.55,2.18-11.09,3.18-16.65,1.09-6.06-1.16-8.84-7.33-8.89-9.83-.08-19.66-.18-29.48.06C384,159.73,382.36,158.23,382.05,154.73Z"/><path class="cls-3" d="M334.12,218.44c28.7-10,36.88-21.87,32.87-48.87,20.45,29.65,25.32,62.29,26.88,96C381.3,240.54,357.67,229.65,334.12,218.44Z"/><path class="cls-4" d="M337.78,225.87c19,9.23,36.68,19,48.23,36.82A45.86,45.86,0,0,1,391.38,275c.93,3.2.91,4.69-3.22,3.61-15.59-4.1-31.25-7.95-46.86-11.94-1.64-.41-3.74-.43-3.32-3.25C339.81,251.15,339.31,238.87,337.78,225.87Z"/><path d="M398.37,267.19c-1.44-27.7-1.74-54.78-6.42-81.53a106,106,0,0,0-4.58-16.78c-.76-2.16-.79-3.43,2.14-3.32,7.13.27,14.27.27,21.41.53,4.4.17,6.46,2.56,5.66,6.87q-8.49,45.48-17.17,90.93A33.49,33.49,0,0,1,398.37,267.19Z"/><path class="cls-5" d="M336.6,143.64c-17.07-.56-30.66,5.35-38.37,20.92-7.59,15.32-4.39,29.62,6.8,42.79-2.75.57-4.71-.73-6.79-1.23-8.23-2-16.42-4.13-24.7-5.82-3.15-.64-4-1.2-2.16-4.27,11.86-20,23.59-40,35.36-60.06.83-1.41,1.36-3.07,3.65-2.53C319.56,135.62,328.54,138.28,336.6,143.64Z"/><path class="cls-5" d="M388.08,202.87c-9.22-28.21-25.07-51.14-52.42-65.26,3.49-4,6.82-7.65,10-11.43,2.12-2.49,3.75-.82,5.51.44,17.59,12.52,27.94,29.91,33.63,50.35A119.07,119.07,0,0,1,389,201C389.49,202,389.83,203,388.08,202.87Z"/><path class="cls-6" d="M331.31,215A34,34,0,0,1,297,180.91c0-19.08,15.11-34,34.36-34a34.06,34.06,0,1,1,0,68.12Z"/><path class="cls-7" d="M381.92,342.41c-.05.34-.1.66-.14,1-1.21,10.26-1.8,10.65-11.68,7.75-3.66-1.07-7.31-2.15-11-3.19-3.32-.93-4.53-3-3.76-6.39.41-1.77.72-3.57,1.05-5.36.57-3.09,2.35-4.23,5.37-3.38,5.58,1.57,11.16,3.12,16.72,4.75A4.36,4.36,0,0,1,381.92,342.41Z"/><path class="cls-7" d="M390.87,299.62c-.09.44-.25,1.08-.38,1.73-1.87,9.57-1.87,9.56-11.49,7-3.67-1-7.36-1.86-11-2.83-3.29-.87-4.41-2.93-3.82-6.33,1.73-9.88,1.66-9.88,11.72-7.41,3.52.86,7.07,1.63,10.6,2.5C389.1,295,391,296.31,390.87,299.62Z"/><path class="cls-7" d="M386.19,320.44c-.21,1.78-.27,2.61-.4,3.42-1.36,8.09-1.89,8.42-10,6.21-3.82-1-7.61-2.2-11.47-3.08-4.06-.94-5.49-3.24-4.46-7.24.41-1.59.66-3.23.94-4.86.54-3.1,2.27-4.14,5.32-3.3,5.41,1.5,10.84,2.92,16.28,4.31C385.35,316.65,386.46,318.5,386.19,320.44Z"/><path class="cls-7" d="M321.14,333c.34-1.87.6-3.34.87-4.8,1.16-6.22,1.92-6.74,7.82-5.1,4,1.1,7.91,2.36,11.91,3.36,3.84,1,5.89,2.85,4.47,7.08a17.77,17.77,0,0,0-.35,2.46c-1.14,6.37-1.92,6.85-8.24,5-4.27-1.25-8.51-2.62-12.81-3.82C322.39,336.47,321.2,335,321.14,333Z"/><path class="cls-7" d="M355.35,290.06c-.44,2.25-.87,4.88-1.46,7.46a3.15,3.15,0,0,1-4.17,2.5c-5.65-1.32-11.29-2.69-16.87-4.25a3.81,3.81,0,0,1-2.83-4.64c.23-1.48.59-2.93.87-4.39,1.08-5.66,1.78-6.14,7.21-4.86,4.36,1,8.7,2.11,13.06,3.12C353.69,285.58,355.4,286.84,355.35,290.06Z"/><path class="cls-7" d="M351,310.51c-.5,2.54-.92,5.16-1.53,7.72-.57,2.39-2.38,3.19-4.57,2.63-5.44-1.38-10.83-2.91-16.22-4.47-2.44-.7-3.4-2.52-3-5,.32-2.12.9-4.2,1.2-6.33.44-3.12,2.49-3.76,5-3.15,5.29,1.26,10.54,2.7,15.8,4.12A4.3,4.3,0,0,1,351,310.51Z"/><path class="cls-8" d="M388.08,202.87,389,201c1,1.21.72,2.65.91,4.19C388.37,204.91,388.16,203.94,388.08,202.87Z"/><path d="M137.5,237.09c3.79-11.38,7.35-22.21,11-33,.52-1.54.24-4,2.9-4,3.48,0,7,.13,10.42.43.31,0,.62,1.77.68,2.73.87,14.93,1.64,29.87,2.58,44.8.16,2.56-.44,4.05-3.13,3.44-2.22-.51-6,2.2-6.16-3.05-.43-11.78-1.15-23.56-2.32-35.51q-3.22,9.56-6.44,19.13c-1.69,5-3.52,10-5,15.1-.83,2.84-2.24,3.77-5.25,3.83s-4-1.35-4.7-3.8c-3.26-10.95-6.61-21.87-9.94-32.83-1.87.39-1,1.85-1.06,2.77-.55,10-1.33,19.92-1.38,29.89,0,5.51-3.36,4.45-6.59,4.55-4.36.13-2.61-3-2.5-4.87.82-13.93,1.88-27.86,2.62-41.8.19-3.69,1.2-5.12,5.21-4.95,7.9.32,7.89.07,10.36,7.63C131.94,217.14,135.09,226.7,137.5,237.09Z"/><path class="cls-9" d="M222.55,212.55c0,11.87-.17,23.13.09,34.37.09,3.82-1.08,4.79-4.77,4.74-3.49,0-4.51-1-4.46-4.53.18-14.3.21-28.61,0-42.9,0-3.7,1.31-4.12,4.56-4.34,4.87-.32,7.76,1.14,10.15,5.62,5.52,10.31,12.35,19.9,17.74,31.93,0-12.21.18-22.93-.1-33.63-.1-3.77,1.61-3.86,4.42-3.84s4.54.08,4.47,3.86c-.25,14,0,27.93-.18,41.9,0,2,1.65,5.39-1.92,5.61-3.27.19-7.18,1.88-9.68-2.6C236.21,236.86,228.65,225.52,222.55,212.55Z"/><path class="cls-4" d="M127.63,285.61c1.52-5.08,3.33-10.09,4.49-15.25,1.22-5.46,5.26-4,8.67-4.05,3.78-.1,2.9,2.9,3,5,.44,7.8.79,15.61,1.18,23.42.11,2.19.52,4.25-3,4.29-3.17,0-4.67-.94-4.66-4.13a136.33,136.33,0,0,0-.84-18.8c-2,6.44-4.17,12.85-6.05,19.33-.67,2.29-1.71,3.31-4.16,3.27s-3.07-1.34-3.59-3.31c-1.62-6.19-3.37-12.34-5.27-19.24-.45,7.12-1.05,13.4-1.17,19.69-.07,3.44-2.1,3-4.29,3.13-2.74.18-3-1.35-2.79-3.43.65-8.95,1.31-17.9,1.86-26.85.12-2.05,1.21-2.71,2.89-2.41,2.8.49,6.67-1.9,8,2.71,1.62,5.52,3.15,11.06,4.72,16.58Z"/><path class="cls-4" d="M128,329.84c1.52-5.26,3.13-10.49,4.53-15.78s5.65-2.64,8.66-3,2.54,2.4,2.64,4.27c.44,8.13.8,16.26,1.21,24.39.11,2.1.28,3.95-2.84,4-2.71,0-4.67-.44-4.69-3.57-.05-6.31,0-12.62-1.08-19.11q-2.7,8.73-5.42,17.46c-.73,2.31-1,4.68-4.66,4.57-3.52-.1-3.48-2.51-4.07-4.57-1.58-5.53-3-11.1-4.79-17.88-.48,7.51-1,13.71-1.2,19.92-.09,2.9-1.57,3.07-3.82,3.17-2.7.11-3.47-1-3.27-3.54q1.05-13.4,1.88-26.83c.12-2.09,1.23-2.7,2.88-2.33,2.74.62,6.68-2.11,8,2.52,1.5,5.09,2.79,10.24,4.17,15.37C126.61,329.46,126.74,330.71,128,329.84Z"/><path class="cls-9" d="M183.5,229.58c0-6.15-.09-12.31,0-18.46.05-2.36-.65-3.33-3.11-3.13s-4.67-.11-7,.08c-3.07.25-4.73-.12-4.75-4.06s1.81-4.06,4.8-4c10.15.13,20.3.22,30.44,0,3.55-.09,3.94,1.32,4,4.32.09,3.21-1.05,3.82-4,3.83-10.94.07-10.94.18-10.94,11,0,9.65-.2,19.31.09,29,.13,4.25-2.44,3.41-4.81,3.43s-5.07.69-4.88-3.47C183.7,241.9,183.5,235.74,183.5,229.58Z"/><path class="cls-10" d="M185.91,276.66c5.28-2.18,10-3.23,13.76,1.32,3.91,4.73,3.85,10.1,1.51,15.45-1.75,4-5.1,6.49-9.42,6.09-3.68-.35-7.17-1.82-11-.64-2.16.67-2.74-.91-2.72-2.92.1-9.29.21-18.59.09-27.88,0-3.34,1.89-3.19,4.18-3.24s3.84.4,3.67,3.23C185.78,270.71,185.91,273.36,185.91,276.66Z"/><path class="cls-11" d="M178.13,331.17c0-2.32,0-4.65,0-7,0-4.16,2-5.81,5.7-4a4.05,4.05,0,0,0,4.13.1c6.6-2.87,12.16.35,12.82,7.53.4,4.28.07,8.63.13,12.95,0,3-2.08,2.87-4.12,2.9s-3.68-.23-3.65-2.86c0-3.66,0-7.32,0-11,0-2.17-.71-4-3.34-4.07s-3.8,1.65-3.82,4.18c0,3-.09,6,0,9,.09,2.74,0,4.84-3.79,4.84-3.51,0-4.23-1.6-4-4.6.17-2.65,0-5.32,0-8Z"/><path class="cls-10" d="M229.27,320.36c7.95-1.2,7.93-1.19,10,5.71.66,2.21,1.45,4.38,2.36,7.12,2.49-3.19,2.3-6.75,3.35-9.85,1-2.94,5.1-4.79,7.81-3.41,1.4.72.67,1.64.36,2.47-3,7.91-5.19,16.1-9.14,23.63a14.26,14.26,0,0,1-7.34,7.11c-1.54.62-3.38,1.69-4.08-.72-.52-1.76-2.41-4.1.86-5.43,4.28-1.72,5-4.34,3-8.62C233.7,332.57,231.65,326.44,229.27,320.36Z"/><path class="cls-10" d="M161.48,344c-7.38,0-12.36-4.81-12.41-12,0-7.57,5.24-12.9,12.82-12.92A12,12,0,0,1,174,331.53C174,339.06,169,344,161.48,344Z"/><path class="cls-10" d="M162.16,274.87c7.27.11,12,5.07,11.8,12.45s-5.63,12.59-12.81,12.35c-7.36-.24-12.32-5.58-12.09-13S154.25,274.74,162.16,274.87Z"/><path class="cls-10" d="M220.61,338.23c1.6.08,3.6-1.24,4.71.36,1,1.44,1.56,3.31-.83,4.56-4.53,2.37-13.93.58-17.07-3.39-3.64-4.61-3.13-12.58,1.08-17A11.37,11.37,0,0,1,221.29,320c4.88,2,6.1,6.21,6.54,10.86.22,2.29-.88,3.31-3.25,3.2-2.81-.12-5.65-.07-8.47,0-1.06,0-2.66-.5-2.93,1.05s1.27,2.27,2.52,2.57A36.32,36.32,0,0,0,220.61,338.23Z"/><path class="cls-10" d="M239.05,289.85c3,4.45,6.41,4.37,9.88,3.66,2.08-.43,3.58-.59,4,2.05s-1,3.07-3.11,3.46c-5.82,1.1-11.56,1.15-15.48-3.94-3.43-4.44-3.24-9.64-.56-14.57a11.37,11.37,0,0,1,13.74-5.26c4.3,1.35,7.45,6.43,7.24,11.42-.09,2.31-1.06,3.26-3.37,3.2C247.57,289.78,243.76,289.85,239.05,289.85Z"/><path class="cls-11" d="M220,281.65c0-4.49.17-9,0-13.45-.16-3.22,1.58-3.36,4-3.38s4,.34,4,3.46q-.24,13.7,0,27.4c.06,3.25-1.68,3.3-4.06,3.33s-4.1-.25-3.94-3.42C220.19,291,220,286.3,220,281.65Z"/><path class="cls-12" d="M207,287.05c0-2.66.16-5.33,0-8-.22-2.93.63-4.16,3.84-4.09s4.06,1.25,4,4.17c-.14,5.47-.18,11,0,16.44.11,3.15-1.51,3.4-4,3.43s-4.1-.45-3.85-3.52C207.19,292.71,207,289.87,207,287.05Z"/><path class="cls-13" d="M214.79,268.82c-.31,2.3-1.66,3.78-3.88,3.86-2.52.09-4-1.38-4-4s1.69-3.5,3.91-3.57C213.3,265,214.27,266.72,214.79,268.82Z"/><path class="cls-14" d="M128,329.84c-.06.75.11,1.92-1.08,1.55s-.78-1.56-.75-2.49Z"/><path class="cls-1" d="M330.83,211.19a29.92,29.92,0,0,1-30-30.15c-.06-17.21,13.41-30.53,30.77-30.42,16.77.11,30.53,14.11,30.18,30.72C361.41,198.32,348,211.25,330.83,211.19Z"/><path class="cls-15" d="M185.91,287.58c-.07-3.44.18-6.62,4.35-6.63s4.7,3.17,4.69,6.28-1.22,6.24-5,6.18S185.66,290.43,185.91,287.58Z"/><path class="cls-15" d="M166.1,331.58c-.19,3.14-.63,6.69-4.28,6.79-3.93.11-4.83-3.36-4.75-6.75s.47-6.79,4.76-6.63C165.81,325.14,165.85,328.63,166.1,331.58Z"/><path class="cls-15" d="M157,287.52c0-3.76.85-7.13,4.44-7.16,4,0,4.61,3.65,4.59,6.94,0,3.08-.44,6.49-4.4,6.53C157.26,293.87,157.26,290.15,157,287.52Z"/><path class="cls-16" d="M212.79,328.94c-.12-3,1.52-4.3,3.82-4.5a3.15,3.15,0,0,1,3.57,3.24c0,2.19-1.94,1.07-3,1.22A33.58,33.58,0,0,1,212.79,328.94Z"/><path class="cls-17" d="M243.21,284.86c-1.33-.33-3.56.6-3.55-1.57s1.72-3.46,4.09-3.37c2.17.09,3.71,1.35,3.5,3.37C247,285.7,244.63,284.46,243.21,284.86Z"/><path class="cls-18" d="M317.73,198.16l7.54,5a1.61,1.61,0,0,1,.57,2.51c-.7,1.07-1.52,1-2.5.29q-5.71-4-11.49-7.92c-1-.69-1.84-1.32-1-2.76s1.5-2.55,3.42-2.09c3,.72,5.92,1.85,9.67,1.73-2.22-2.67-4-5-6-7.19-1.23-1.35-1.17-2.41-.27-4,1.22-2.1,2.51-1,3.74-.36q5.79,2.9,11.48,6c.74.4,2,.73,1.25,2.19-.65,1.29-1.4,1.71-2.76,1-2.16-1.18-4.37-2.27-7.19-3.72.4,3.25,2.84,4.43,4,6.36.72,1.17,2.51,2,1.27,3.81-1.08,1.57-2.36.37-3.59.26C323.43,199,321.17,197.59,317.73,198.16Z"/><path class="cls-19" d="M335.3,167.12c2.16,2.36,5.25,3.26,7.78,5,.9.63,2,1.05,1.09,2.63s-1.86.89-2.85.3c-3.72-2.19-7.43-4.37-11.11-6.62-.9-.55-2.46-.82-1.9-2.4s1.4-2.61,3.24-2.58a36.83,36.83,0,0,0,10.28-1q-3.24-2-6.49-3.89c-1.08-.64-2-1.37-1.07-2.75s1.88-.77,3-.12c3.69,2.24,7.39,4.45,11.13,6.59,1.85,1,2.37,2.2.74,3.85C344.55,167.35,339.81,165.57,335.3,167.12Z"/><path class="cls-20" d="M325.86,178.09c-1.4,0-1.74,1-2.23,1.83-.64,1.07-1.34,2-2.73,1-1.58-1.08-.27-2.08.22-3,1.45-2.61,3.06-5.14,4.57-7.72.55-.95,1.21-1.69,2.35-1.08a1.49,1.49,0,0,1,.38,2.51c-2.22,2.68-.18,3.56,1.79,4.66,2.61,1.46,5.12,3.09,7.71,4.58,1.15.67,1.81,1.36,1,2.74s-1.73,1.12-2.87.4c-2.54-1.58-5.13-3.07-7.71-4.59C327.48,179,326.61,178.52,325.86,178.09Z"/><path class="cls-21" d="M335.3,167.12c1.52-2.07,3.63-.64,5.43-.82,2.76-.28,5.57-.08,8.36-.09C344.61,168.23,339.89,166.71,335.3,167.12Z"/></svg>