<svg id="Layer_1" data-name="Layer 1" xmlns="http://www.w3.org/2000/svg" viewBox="0 0 353.57 360.65"><defs><style>.cls-1{fill:#fe7900;}.cls-2{fill:#fefefe;}</style></defs><path d="M197,162.34c-.51.55-1,1.11-1.54,1.64Q153,206.37,110.63,248.74c-8,8-19.58,9.15-28.43,2.83a21.55,21.55,0,0,1-3.62-31.74c.6-.67,1.24-1.31,1.87-2L165.38,133a14.47,14.47,0,0,1,1.44-1.09,2.71,2.71,0,0,0-1.88-.35q-26,0-52,0a21.49,21.49,0,0,1-21.25-16.16C88.16,102,98.27,88.51,112.08,88.48q53.67-.14,107.32,0c11.83,0,21.09,9.78,21.12,22,0,12.67,0,25.34,0,38q0,33.57,0,67.14c0,10.58-6.62,19.2-16.51,21.59a21.55,21.55,0,0,1-26.67-20.75c-.07-17.48,0-35,0-52.43v-1.59Z" transform="translate(-73.21 -69.67)"/><path class="cls-1" d="M333.62,193.81h1.6q26,0,52,0a21.42,21.42,0,0,1,21.24,16.94c3,12.95-7.06,26.05-20.36,26.11-25.95.12-51.91,0-77.86,0H281.54c-11.3,0-20-7.38-21.85-18.54a21.61,21.61,0,0,1-.19-3.6q0-52.58,0-105.15c0-11.47,7.45-20.15,18.78-22,11.8-1.87,23.79,7.77,24.23,19.7.26,7.16.1,14.32.1,21.48q0,16.23,0,32.45a2.62,2.62,0,0,0,.17,1.6c.63-.2.95-.74,1.36-1.14Q347,119,389.83,76.17c6-6,13.24-7.84,21.28-5.56s13.22,7.79,15.07,16c1.75,7.69-.33,14.51-5.89,20.11q-17,17.1-34.1,34.11l-51.56,51.51a10.08,10.08,0,0,1-1.33,1Z" transform="translate(-73.21 -69.67)"/><path d="M146,395.87c4.64-14.48,9.27-28.87,13.85-43.27.32-1,.68-1.43,1.82-1.41q8.72.09,17.43,0c1,0,1.32.25,1.32,1.31q-.06,31.25,0,62.48c0,1.18-.34,1.38-1.42,1.36-3.5-.07-7-.08-10.52,0-1.19,0-1.47-.32-1.47-1.49q.06-21.54,0-43.1V370.4a2.21,2.21,0,0,0-.73,1.38q-7.43,21.5-14.77,43a1.9,1.9,0,0,1-2.23,1.54c-2.65-.09-5.31-.09-8,0-1.1,0-1.52-.35-1.87-1.35Q132,393.5,124.5,372a2.52,2.52,0,0,0-.65-1.12v1.6q0,21.18,0,42.35c0,1.12-.2,1.53-1.43,1.5q-5.1-.15-10.22,0c-1.31,0-1.74-.24-1.73-1.67.06-14.82,0-29.63,0-44.45,0-5.91,0-11.82,0-17.72,0-1.07.3-1.32,1.33-1.31,5.76.05,11.52.06,17.28,0a1.73,1.73,0,0,1,2,1.43q7,20.92,14.13,41.82A2.29,2.29,0,0,0,146,395.87Z" transform="translate(-73.21 -69.67)"/><path d="M175.66,300.29c0,6.89-1.45,13.43-5.26,19.24-6.32,9.67-15.61,13.5-26.85,13-17.21-.81-26.84-13.62-28.17-28.16-.71-7.75.32-15.19,4.08-22.07,5-9.2,13-14,23.41-14.73,7.44-.55,14.45.93,20.56,5.48,6.5,4.84,10,11.54,11.53,19.36A42.92,42.92,0,0,1,175.66,300.29Z" transform="translate(-73.21 -69.67)"/><path d="M345,293.55c0-2,0-3.63,0-5.26,0-.8.23-1,1-1,3.41,0,6.81,0,10.22,0,.74,0,1,.15,1,1,0,14.52.11,29-.12,43.55-.17,10-5.29,16.1-15.08,18.36-7.11,1.65-14.21,1.64-21-1.56-4.59-2.17-7.72-5.59-8.7-10.74-.22-1.18,0-1.65,1.33-1.61,3.35.1,6.71.06,10.07,0,.83,0,1.29.12,1.62,1.06,1.14,3.31,3.8,4.75,7.08,5.2,7.23,1,11.74-2.49,12.43-9.73.24-2.46,0-5,0-7.68-.54.68-.93,1.23-1.37,1.73-3.79,4.29-8.72,5.66-14.21,5.37-11.31-.6-16.72-8.13-18.2-17.43a29.66,29.66,0,0,1,1.76-16.93c4.5-10.26,14.18-13.43,23.52-11.11C339.76,287.59,341.6,289.13,345,293.55Z" transform="translate(-73.21 -69.67)"/><path d="M259.44,331.41c-4.17,0-8.13,0-12.08,0-.94,0-1.37-.26-1.52-1.18s-.43-1.92-.67-3c-5.55,4.68-12.09,5.77-19,5.06-5.32-.54-9.95-2.47-12.22-7.82-3-7.11.06-14.13,7.27-16.81,4.18-1.56,8.59-1.83,12.95-2.37a37.08,37.08,0,0,0,6.94-1.21c2.53-.82,3.6-2.08,3.6-4.18,0-2.78-1.21-4.58-3.77-5.26a16.23,16.23,0,0,0-8.61,0,6.12,6.12,0,0,0-4.63,5.17c-.14.8-.43,1-1.23,1-3.65,0-7.31-.06-11,0-1,0-1.08-.32-1-1.21.9-6.45,5-10.12,10.83-11.92a40.62,40.62,0,0,1,23.67-.06c4,1.17,7.22,3.44,8.39,7.79a14.76,14.76,0,0,1,.44,3.86c0,7.76,0,15.52,0,23.28A20.36,20.36,0,0,0,259.44,331.41Z" transform="translate(-73.21 -69.67)"/><path d="M407.57,317.7c-2.4,6.85-6.57,11.68-13.45,13.71a28,28,0,0,1-17.58-.31c-9-3.16-13.6-9.85-14.49-19.12-1.18-12.18,5.63-22.3,17-25.07,7.58-1.84,14.91-1.17,21.17,4,6.44,5.27,8.39,12.52,8.3,20.52,0,.77-.35.89-1,.88-2.55,0-5.11,0-7.67,0-7.91,0-15.83,0-23.74,0-1,0-1.33.22-1.25,1.29.46,6,4.25,9.63,10.21,9.87a13.69,13.69,0,0,0,7.39-1.53,6,6,0,0,0,2.84-2.38c.83-1.85,2.23-1.85,3.86-1.81C401.87,317.76,404.63,317.7,407.57,317.7Z" transform="translate(-73.21 -69.67)"/><path d="M333,401.49c-1.78,7.3-8.46,13.21-16.25,14.4a30.2,30.2,0,0,1-14.1-.84c-7.59-2.47-12.44-7.57-14.36-15.32-1.78-7.23-1-14.16,3.39-20.33,4.84-6.84,11.78-9.66,20-9.54,12.18.17,20.67,8,22.11,20.13.17,1.45.18,2.9.27,4.34s-.23,1.77-1.69,1.76c-10.16-.08-20.32,0-30.49-.08-1.41,0-1.66.4-1.47,1.66.66,4.24,2.41,7.69,6.87,8.91,4.93,1.35,9.81,1,13.22-3.1,1.55-1.86,2.94-2,4.85-2C327.84,401.52,330.39,401.49,333,401.49Z" transform="translate(-73.21 -69.67)"/><path d="M357.66,400.7c1.41-4.36,2.69-8.29,4-12.22q2.83-8.76,5.67-17.52c.2-.64.32-1.17,1.23-1.16,3.9,0,7.81,0,11.69,0,.29.48,0,.82-.11,1.17q-9.23,24.51-18.43,49c-2,5.3-5.27,9-11.11,9.94a34.61,34.61,0,0,1-8.69.18c-3.48-.34-3.48-.33-3.48-3.87,0-1.65.13-3.32,0-4.95s.48-1.62,1.68-1.48a45.18,45.18,0,0,0,4.65.3c4,.07,6.51-3,5.61-6.94a63.2,63.2,0,0,0-3-8.3Q340.94,388,334.5,371.19c-.42-1.1-.38-1.43.92-1.4q5.25.12,10.52,0c1.11,0,1.53.37,1.86,1.38C351,380.88,354.27,390.57,357.66,400.7Z" transform="translate(-73.21 -69.67)"/><path d="M275.81,293.39c5.57-7.92,14.73-8.7,22.06-5.93,4.5,1.69,6.59,5.45,7.53,9.94a34.32,34.32,0,0,1,.64,7c0,9,0,17.92,0,26.88,0,1-.19,1.38-1.29,1.35-3.21-.07-6.41-.07-9.62,0-1.11,0-1.43-.26-1.42-1.4,0-7.91,0-15.82,0-23.73a21.85,21.85,0,0,0-.7-6.54c-.87-2.82-2.63-4.63-5.7-5-6.58-.78-10.41,2.6-10.79,9.7-.33,6.2-.09,12.41-.14,18.62,0,2.35,0,4.7,0,7.05,0,.94-.19,1.31-1.24,1.29-3.3-.07-6.61-.06-9.91,0-1,0-1.14-.34-1.14-1.21q0-21.48,0-42.95c0-.84.09-1.23,1.1-1.21,3.15.08,6.31.06,9.47,0,.83,0,1.14.2,1.1,1.08C275.77,290,275.81,291.71,275.81,293.39Z" transform="translate(-73.21 -69.67)"/><path d="M252.52,377.15a16.86,16.86,0,0,1,10.92-7,19.93,19.93,0,0,1,11.34,1.16c4.68,2,6.64,6,7.48,10.66a37.84,37.84,0,0,1,.53,6.72c0,8.76,0,17.52,0,26.28,0,1.15-.32,1.43-1.43,1.4-3.2-.07-6.41-.08-9.61,0-1.1,0-1.3-.32-1.29-1.33,0-8,0-16,0-24a20.32,20.32,0,0,0-.88-6.66,6.27,6.27,0,0,0-5.1-4.51c-6.26-1.09-10.37,2-11.14,8.41a91.49,91.49,0,0,0-.27,10.34q0,8.26,0,16.52c0,.94-.17,1.28-1.2,1.26-3.31-.07-6.61,0-9.92,0-.89,0-1.2-.19-1.2-1.15q0-21.48,0-42.94c0-.89.17-1.23,1.14-1.22,3.15.06,6.31.08,9.46,0,1,0,1.13.37,1.11,1.21C252.48,373.87,252.52,375.51,252.52,377.15Z" transform="translate(-73.21 -69.67)"/><path d="M212.88,369.81c7.7.11,14.35,2.41,19,8.81,6,8.13,5.75,21.42-.36,29.43a20.08,20.08,0,0,1-10.79,7.21,28.31,28.31,0,0,1-15.41.07A20.9,20.9,0,0,1,190,397.62a29,29,0,0,1,1-13.19,21.07,21.07,0,0,1,19-14.48C210.94,369.89,211.94,369.85,212.88,369.81Z" transform="translate(-73.21 -69.67)"/><path d="M191.69,295.26c3.16-5.62,7.56-9,14.07-9.17a10.05,10.05,0,0,1,1.34.09c.85.09,1.25.44,1.23,1.43-.08,3.44,0,6.89,0,10.4a18.93,18.93,0,0,0-7.42-.07c-4.91,1.17-7.2,4.68-8.18,9.31a28.5,28.5,0,0,0-.43,5.68c0,6.11,0,12.21,0,18.32,0,1.15-.33,1.42-1.44,1.39-3.1-.07-6.21-.05-9.31,0-.85,0-1.22-.1-1.22-1.11q0-21.61,0-43.23c0-.78.19-1,1-1,3.1.05,6.21.05,9.31,0,.89,0,1.08.3,1.07,1.12C191.66,290.68,191.69,293,191.69,295.26Z" transform="translate(-73.21 -69.67)"/><path class="cls-2" d="M162.11,299.79c0,4.9-.68,9.32-2.91,13.35-3.3,5.94-8.53,8.3-15.16,7.87a14.36,14.36,0,0,1-13.18-9.54,29.34,29.34,0,0,1,.2-23.21c2.76-6.49,8-9.54,15.15-9.33,6.5.2,11.56,3.88,14,10.19A29,29,0,0,1,162.11,299.79Z" transform="translate(-73.21 -69.67)"/><path class="cls-2" d="M323.6,309.27a18.06,18.06,0,0,1,1.4-7.68c1.78-3.86,4.75-5.93,9.08-5.92s7.76,1.87,9.47,6a19.45,19.45,0,0,1,.81,12.79c-1.44,5.28-5.56,8.39-10.62,8.21s-8.49-3.41-9.66-9A28.14,28.14,0,0,1,323.6,309.27Z" transform="translate(-73.21 -69.67)"/><path class="cls-2" d="M244.72,309.89c-.11,2.45.17,4.74-.23,7a8.27,8.27,0,0,1-6.88,7.18,15.69,15.69,0,0,1-7.43-.09c-2.51-.65-3.84-2.13-4.1-4.39a5.43,5.43,0,0,1,3.07-5.82,22.86,22.86,0,0,1,7.38-1.83C239.28,311.56,242.09,311.4,244.72,309.89Z" transform="translate(-73.21 -69.67)"/><path class="cls-2" d="M385.11,304.55c-2.95,0-5.9-.09-8.85,0-1.55.07-1.58-.53-1.28-1.73,1.15-4.58,4.53-7.32,9.52-7.65,5.95-.39,9.68,2.52,10.89,8.37.18.92-.09,1-.83,1C391.41,304.54,388.26,304.55,385.11,304.55Z" transform="translate(-73.21 -69.67)"/><path class="cls-2" d="M310.59,388.31c-3,0-6.11-.05-9.16,0-1.09,0-1.24-.35-1.05-1.29a9.77,9.77,0,0,1,9.19-8.06c6.2-.52,9.73,2.07,11.27,8.08.31,1.24-.11,1.27-1.09,1.26C316.7,388.28,313.65,388.31,310.59,388.31Z" transform="translate(-73.21 -69.67)"/><path class="cls-2" d="M202,393.07a21.4,21.4,0,0,1,1.2-7.36,9.6,9.6,0,0,1,9.73-6.75c4.75,0,8.22,2.33,9.74,6.76a22.19,22.19,0,0,1,0,14.72c-1.53,4.42-5,6.75-9.75,6.76a9.62,9.62,0,0,1-9.73-6.77A21.39,21.39,0,0,1,202,393.07Z" transform="translate(-73.21 -69.67)"/></svg>